<svg version="1.2" xmlns="http://www.w3.org/2000/svg" viewBox="0 0 355 355" width="300" height="300">
	<style>
		.s0 { fill: none;stroke: #553620;stroke-linecap: round;stroke-linejoin: round;stroke-width: 19 } 
		.s1 { fill: #613110;stroke: #613110;stroke-linecap: round;stroke-linejoin: round;stroke-width: 9 } 
		.s2 { fill: none;stroke: #784c2d;stroke-linecap: round;stroke-linejoin: round;stroke-width: 25 } 
	</style>
	<path id="Wifi1" fill-rule="evenodd" class="s0" d="m182.67 25.64c7.64-6.23 37.78-13.93 70-2.67 34.54 12.07 56.77 43.24 58.66 53"/>
	<path id="Wifi2" fill-rule="evenodd" class="s0" d="m196 67c4.42-4.9 25.94-12.43 45-5.7 19.62 6.93 31.74 27.4 32 34"/>
	<path id="Cube1" class="s1" d="m103 184l63 34-1 75-63-36z"/>
	<path id="Cube2" class="s1" d="m118 168l56 28 52-27-54-30z"/>
	<path id="P" class="s2" d="m70 279l1.55-125.5 101.74-56.45 107.36 55.9 0.68 97.35-83.83 46.15-3 10.5-0.5 20-4.5 6.5-7.5 3.52-8-0.67-8.33-4.33-47.67-26.33z"/>
	<path id="L" fill-rule="evenodd" class="s2" d="m277.94 179.26l-83.61 44.71-0.66 102.26"/>
</svg>